<?xml version="1.0" encoding="UTF-8" standalone="no"?>
<!-- Created with Inkscape (http://www.inkscape.org/) -->

<svg
   xmlns:dc="http://purl.org/dc/elements/1.1/"
   xmlns:cc="http://creativecommons.org/ns#"
   xmlns:rdf="http://www.w3.org/1999/02/22-rdf-syntax-ns#"
   xmlns:svg="http://www.w3.org/2000/svg"
   xmlns="http://www.w3.org/2000/svg"
   xmlns:sodipodi="http://sodipodi.sourceforge.net/DTD/sodipodi-0.dtd"
   xmlns:inkscape="http://www.inkscape.org/namespaces/inkscape"
   width="744.09448819"
   height="1052.3622047"
   id="svg2"
   version="1.1"
   inkscape:version="0.48.2 r9819"
   sodipodi:docname="title-curved.svg">
  <sodipodi:namedview
     id="base"
     pagecolor="#ffffff"
     bordercolor="#666666"
     borderopacity="1.0"
     inkscape:pageopacity="0"
     inkscape:pageshadow="2"
     inkscape:zoom="0.86911006"
     inkscape:cx="401.70333"
     inkscape:cy="993.01974"
     inkscape:document-units="px"
     inkscape:current-layer="layer3"
     showgrid="false"
     inkscape:window-width="1366"
     inkscape:window-height="746"
     inkscape:window-x="-8"
     inkscape:window-y="-8"
     inkscape:window-maximized="1"
     inkscape:snap-smooth-nodes="true"
     inkscape:snap-global="false" />
  <defs
     id="defs4" />
  <metadata
     id="metadata7">
    <rdf:RDF>
      <cc:Work
         rdf:about="">
        <dc:format>image/svg+xml</dc:format>
        <dc:type
           rdf:resource="http://purl.org/dc/dcmitype/StillImage" />
        <dc:title />
      </cc:Work>
    </rdf:RDF>
  </metadata>
  <g
     style="display:inline"
     inkscape:label="background"
     id="layer3"
     inkscape:groupmode="layer">
    <rect
       style="fill:#000000;fill-opacity:1;stroke:#000000;stroke-opacity:1"
       id="rect3022"
       width="940"
       height="198"
       x="-79.391571"
       y="-14.246115" />
  </g>
  <g
     style="display:inline"
     inkscape:label="Layer-back"
     id="layer2"
     inkscape:groupmode="layer">
    <g
       id="g9765"
       style="display:inline"
       inkscape:export-filename="C:\Users\Owner\Documents\Projects\Drinks-O-Matic\images\drinkomatic.png"
       inkscape:export-xdpi="90"
       inkscape:export-ydpi="90"
       transform="matrix(1.9317792,0,0,1.3302683,-366.21067,-26.870211)">
      <g
         style="font-size:46.53180695px;font-style:normal;font-variant:normal;font-weight:normal;font-stretch:normal;text-align:start;line-height:150%;letter-spacing:11.63295174px;word-spacing:0px;writing-mode:lr-tb;text-anchor:start;fill:#800000;fill-opacity:1;stroke:none;font-family:SWRomnd;-inkscape-font-specification:SWRomnd"
         id="text9612-0">
        <path
           d="m 176.10926,70.453019 c 1.02417,1.100139 2.03471,2.224151 3.03164,3.372037 0,0 1.45444,3.789163 1.45444,3.789163 0,0 1.29656,5.276939 1.29656,5.276939 0,0 0,9.934666 0,9.934666 0,0 -1.45791,6.41919 -1.45791,6.41919 0,0 -1.37376,4.238096 -1.37376,4.238096 0,0 -2.95097,4.99718 -2.95097,4.99718 0,0 -4.33577,3.39973 -4.33577,3.39973 0,0 -9.53742,3.39561 -9.53742,3.39561 -0.20961,-0.0316 -0.37985,-0.21145 -0.51075,-0.53959 0,0 -0.0386,-0.95606 -0.0386,-0.95606 0,0 0,-39.45618 0,-39.45618 0.10442,-0.421223 0.24819,-0.744627 0.43131,-0.970213 0,0 0.23495,-0.14914 0.23495,-0.14914 0,0 9.78108,-3.354135 9.78108,-3.354135 0,0 3.97521,0.602707 3.97521,0.602707 m -0.88856,4.320463 c 0,0 -3.56663,-0.597259 -3.56663,-0.597259 0,0 -7.00951,2.451405 -7.00951,2.451405 0,0 0,33.459702 0,33.459702 0,0 6.76837,-2.37197 6.76837,-2.37197 0,0 3.80777,-2.96443 3.80777,-2.96443 0,0 1.09083,-1.81242 1.09083,-1.81242 0.48478,-1.2875 1.3336,-4.511268 2.54643,-9.671313 0,0 0.0398,-8.976921 0.0398,-8.976921 -0.34999,-1.418021 -0.7136,-2.850701 -1.09083,-4.298045 -0.43105,-1.621656 -0.90261,-2.945401 -1.41469,-3.971242 0,0 -1.17151,-1.247507 -1.17151,-1.247507"
           style="font-size:46.53180695px;font-style:normal;font-variant:normal;font-weight:normal;font-stretch:normal;text-align:start;line-height:150%;letter-spacing:11.63295174px;writing-mode:lr-tb;text-anchor:start;fill:#800000;font-family:SWRomnd;-inkscape-font-specification:SWRomnd"
           id="path9712"
           inkscape:connector-curvature="0" />
        <path
           d="m 215.65335,61.169706 c 0.44396,0.382453 1.04049,1.063928 1.78958,2.044432 0,0 1.45718,3.754701 1.45718,3.754701 0,0 0,6.338429 0,6.338429 0,0 -1.54029,4.480681 -1.54029,4.480681 0,0 -1.54028,2.367873 -1.54028,2.367873 0,0 -0.33359,0.283205 -0.33359,0.283205 0,0 -4.15023,2.64146 -4.15023,2.64146 0,0 7.56439,16.150411 7.56439,16.150411 -3e-5,0.342502 -0.0558,0.712959 -0.16739,1.111382 -0.16622,0.25659 -0.41591,0.41247 -0.74907,0.46764 0,0 -0.33239,0.055 -0.33239,0.055 -0.11161,0.0185 -0.26456,0.0438 -0.45883,0.076 -0.19432,0.0696 -0.33281,0.11128 -0.41548,0.12497 -0.444,0.0735 -0.73544,-0.10619 -0.87431,-0.53912 0,0 -8.01077,-16.810062 -8.01077,-16.810062 0,0 -5.458,1.111228 -5.458,1.111228 0,0 0,17.986134 0,17.986134 -0.055,0.39114 -0.19977,0.66786 -0.4342,0.83012 -0.23445,0.16227 -0.58696,0.28528 -1.053,0.39012 0,0 -1.02895,0.23146 -1.02895,0.23146 -0.21993,-0.0651 -0.39857,-0.27212 -0.53592,-0.62116 0,0 -0.0405,-0.96222 -0.0405,-0.96222 0,0 0,-39.456188 0,-39.456188 0.10956,-0.404547 0.26041,-0.704991 0.45255,-0.901332 0,0 0.24652,-0.111616 0.24652,-0.111616 0,0 11.46101,-2.174538 11.46101,-2.174538 0,0 4.15197,1.13097 4.15197,1.13097 m -1.04009,4.121587 c 0,0 -3.52726,-1.008382 -3.52726,-1.008382 0,0 -8.65213,1.701558 -8.65213,1.701558 0,0 0,14.560051 0,14.560051 0,0 8.44564,-1.663595 8.44564,-1.663595 0,0 3.77577,-2.407229 3.77577,-2.407229 0,0 1.12211,-3.163072 1.12211,-3.163072 0,0 0,-5.139133 0,-5.139133 0,0 -1.16413,-2.880198 -1.16413,-2.880198"
           style="font-size:46.53180695px;font-style:normal;font-variant:normal;font-weight:normal;font-stretch:normal;text-align:start;line-height:150%;letter-spacing:11.63295174px;writing-mode:lr-tb;text-anchor:start;fill:#800000;font-family:SWRomnd;-inkscape-font-specification:SWRomnd"
           id="path9714"
           inkscape:connector-curvature="0" />
        <path
           d="m 239.31661,55.71418 c 0.22385,0.04947 0.39153,0.238803 0.50306,0.568024 0,0 0.0837,0.561638 0.0837,0.561638 0,0 0,39.96828 0,39.96828 -0.0275,0.308316 -0.18102,0.593051 -0.46062,0.854201 -0.22387,0.06511 -0.57297,0.12582 -1.04734,0.182121 0,0 -1.04723,0.125014 -1.04723,0.125014 -0.22346,-0.08479 -0.40496,-0.307871 -0.54451,-0.669236 0,0 -0.0412,-0.965853 -0.0412,-0.965853 0,0 0,-39.456185 0,-39.456185 0.13955,-0.627543 0.48778,-0.980531 1.0462,-1.046848 0.11151,-0.01319 0.33495,-0.02044 0.67033,-0.02174 0.30708,-0.03641 0.58628,-0.06954 0.83762,-0.09941 0,0 0,2e-6 0,2e-6"
           style="font-size:46.53180695px;font-style:normal;font-variant:normal;font-weight:normal;font-stretch:normal;text-align:start;line-height:150%;letter-spacing:11.63295174px;writing-mode:lr-tb;text-anchor:start;fill:#800000;font-family:SWRomnd;-inkscape-font-specification:SWRomnd"
           id="path9716"
           inkscape:connector-curvature="0" />
        <path
           d="m 260.72227,53.763228 c 0,0 16.57514,29.84071 16.57514,29.84071 0,0 0.0414,-30.608349 0.0414,-30.608349 0.0843,-0.387458 0.26671,-0.652572 0.54784,-0.783292 0.19659,-0.04869 0.49151,-0.08436 0.88477,-0.106976 0,0 1.09437,-0.06285 1.09437,-0.06285 0.28108,0.09732 0.46388,0.334069 0.54841,0.710218 0,0 0.0414,1.139098 0.0414,1.139098 0,0 0,39.342203 0,39.342203 -0.11214,0.53946 -0.37863,0.821274 -0.79946,0.845444 -0.28113,0.01614 -0.50618,-0.06619 -0.67515,-0.247009 0,0 -16.61889,-29.927636 -16.61889,-29.927636 0,0 0,30.605181 0,30.605181 -0.0276,0.307167 -0.18176,0.585477 -0.4625,0.834932 -0.22477,0.05574 -0.57566,0.09779 -1.05101,0.144937 0,0 -1.04951,0.104086 -1.04951,0.104086 -0.22433,-0.09229 -0.40653,-0.321455 -0.54662,-0.687503 0,0 -0.0413,-0.967232 -0.0413,-0.967232 0,0 0,-39.456185 0,-39.456185 0.0834,-0.465264 0.34944,-0.796152 0.79807,-0.992663 0.25185,-0.02493 0.48953,0.06602 0.71304,0.272885 0,0 -3e-5,2e-6 -3e-5,2e-6"
           style="font-size:46.53180695px;font-style:normal;font-variant:normal;font-weight:normal;font-stretch:normal;text-align:start;line-height:150%;letter-spacing:11.63295174px;writing-mode:lr-tb;text-anchor:start;fill:#800000;font-family:SWRomnd;-inkscape-font-specification:SWRomnd"
           id="path9718"
           inkscape:connector-curvature="0" />
        <path
           d="m 321.15838,51.224343 c -2e-5,0.381083 -0.0846,0.707248 -0.2538,0.978494 0,0 -12.05988,16.667796 -12.05988,16.667796 0,0 12.22948,21.754453 12.22948,21.754453 0.0561,0.150394 0.0842,0.282856 0.0842,0.397389 -3e-5,0.190523 -0.0704,0.440021 -0.2111,0.748498 -0.14076,0.308476 -0.40798,0.468271 -0.80167,0.479384 0,0 -1.22265,0.03451 -1.22265,0.03451 -0.47835,0.0135 -0.78788,-0.206278 -0.92859,-0.659339 0,0 -11.21575,-19.872573 -11.21575,-19.872573 0,0 -3.79432,5.354183 -3.79432,5.354183 0,0 0,14.901998 0,14.901998 -0.0276,0.3062 -0.18214,0.579113 -0.46346,0.818737 -0.22524,0.04787 -0.5765,0.0817 -1.05378,0.101483 0,0 -1.05377,0.04367 -1.05377,0.04367 -0.22523,-0.105205 -0.40818,-0.344857 -0.54884,-0.71897 0,0 -0.0415,-0.969611 -0.0415,-0.969611 0,0 0,-39.456185 0,-39.456185 0.11221,-0.384552 0.2667,-0.657464 0.46347,-0.818737 0.19677,-0.04555 0.51997,-0.07768 0.96962,-0.09634 0,0 1.13793,-0.04715 1.13793,-0.04715 0.22522,0.0667 0.39393,0.268948 0.50615,0.606755 0,0 0.0842,0.568079 0.0842,0.568079 0,0 0,19.699183 0,19.699183 0,0 15.72756,-21.531956 15.72756,-21.531956 0.0846,0.0362 0.22531,0.0515 0.42219,0.0459 0.11224,-0.0031 0.26679,-0.0075 0.46368,-0.01309 0.2245,-0.04484 0.39328,-0.06888 0.50638,-0.07211 0.64669,-0.01821 0.99811,0.33364 1.05427,1.055557 0,0 -10e-6,0 -10e-6,0"
           style="font-size:46.53180695px;font-style:normal;font-variant:normal;font-weight:normal;font-stretch:normal;text-align:start;line-height:150%;letter-spacing:11.63295174px;writing-mode:lr-tb;text-anchor:start;fill:#800000;font-family:SWRomnd;-inkscape-font-specification:SWRomnd"
           id="path9720"
           inkscape:connector-curvature="0" />
        <path
           d="m 363.94996,70.278718 c 0.25306,0.07455 0.45,0.26339 0.59081,0.566514 0.0561,0.608705 0.0842,1.084297 0.0842,1.426777 -2e-5,0.153096 -0.0143,0.400967 -0.0427,0.743611 -3e-5,0.303972 -3e-5,0.531937 0,0.683897 -0.0277,0.266685 -0.18232,0.515364 -0.46385,0.746034 0,0 -0.37963,0.116164 -0.37963,0.116164 0,0 -24.00677,0.207935 -24.00677,0.207935 -0.42149,-0.106033 -0.63224,-0.596826 -0.63223,-1.472362 0,0 0,-1.542896 0,-1.542896 -10e-6,-0.455912 0.14035,-0.819588 0.42107,-1.091032 0.16925,-0.117476 0.31001,-0.177204 0.4223,-0.17919 0,0 24.00678,-0.205452 24.00678,-0.205452"
           style="font-size:46.53180695px;font-style:normal;font-variant:normal;font-weight:normal;font-stretch:normal;text-align:start;line-height:150%;letter-spacing:11.63295174px;writing-mode:lr-tb;text-anchor:start;fill:#800000;font-family:SWRomnd;-inkscape-font-specification:SWRomnd"
           id="path9722"
           inkscape:connector-curvature="0" />
        <path
           d="m 400.89624,51.548952 c 0,0 2.95285,4.065112 2.95285,4.065112 0,0 1.51976,4.289249 1.51976,4.289249 0,0 1.35008,5.600227 1.35008,5.600227 0,0 0,9.936318 0,9.936318 0,0 -1.56126,6.045024 -1.56126,6.045024 0,0 -1.35008,3.764525 -1.35008,3.764525 0,0 -3.16404,4.155702 -3.16404,4.155702 0,0 -2.95407,1.98753 -2.95407,1.98753 0,0 -6.07538,-0.08105 -6.07538,-0.08105 0,0 -3.1225,-2.104275 -3.1225,-2.104275 0,0 -2.99553,-4.09275 -2.99553,-4.09275 0,0 -1.51974,-4.274691 -1.51974,-4.274691 0,0 -1.35006,-5.587296 -1.35006,-5.587296 0,0 0.0427,-9.936564 0.0427,-9.936564 0,0 1.51852,-6.003566 1.51852,-6.003566 0,0 1.39279,-3.833868 1.39279,-3.833868 0,0 3.12248,-4.127951 3.12248,-4.127951 0,0 2.91132,-1.949982 2.91132,-1.949982 0,0 0.20997,-0.05536 0.20997,-0.05536 0,0 5.94964,0.07892 5.94964,0.07892 0,0 3.12253,2.12475 3.12253,2.12475 m -1.22314,3.821177 c 0,0 -3.62911,-1.726923 -3.62911,-1.726923 0,0 -2.65866,-0.01017 -2.65866,-0.01017 0,0 -3.71211,1.765824 -3.71211,1.765824 0,0 -2.44746,4.981416 -2.44746,4.981416 0,0 -1.39278,5.375111 -1.39278,5.375111 0,0 -0.0415,8.965226 -0.0415,8.965226 0,0 1.26462,5.302005 1.26462,5.302005 0,0 2.65862,5.353453 2.65862,5.353453 0,0 3.6291,1.660344 3.6291,1.660344 0,0 2.44749,0.0094 2.44749,0.0094 0,0 3.8818,-1.640381 3.8818,-1.640381 0,0 2.53049,-5.129455 2.53049,-5.129455 0,0 1.3513,-5.191783 1.3513,-5.191783 0,0 0,-9.07897 0,-9.07897 0,0 -1.26585,-5.428105 -1.26585,-5.428105 0,0 -2.61593,-5.206954 -2.61593,-5.206954"
           style="font-size:46.53180695px;font-style:normal;font-variant:normal;font-weight:normal;font-stretch:normal;text-align:start;line-height:150%;letter-spacing:11.63295174px;writing-mode:lr-tb;text-anchor:start;fill:#800000;font-family:SWRomnd;-inkscape-font-specification:SWRomnd"
           id="path9724"
           inkscape:connector-curvature="0" />
        <path
           d="m 449.56749,70.880754 c 0.253,0.08179 0.44984,0.277925 0.59057,0.586778 0.0561,0.610989 0.0841,1.087721 0.0842,1.430205 -3e-5,0.153094 -0.0143,0.400385 -0.0427,0.741872 -2e-5,0.303971 -2e-5,0.531936 0,0.683897 -0.0277,0.265559 -0.18216,0.506271 -0.46363,0.728895 0,0 -0.37954,0.105314 -0.37954,0.105314 0,0 -24.00338,-0.550615 -24.00338,-0.550615 -0.42153,-0.118684 -0.63229,-0.615804 -0.63228,-1.491339 0,0 0,-1.542897 0,-1.542897 -1e-5,-0.455911 0.14036,-0.815374 0.42111,-1.078392 0.16924,-0.112396 0.31002,-0.167899 0.42232,-0.166515 0,0 24.00334,0.552797 24.00334,0.552797"
           style="font-size:46.53180695px;font-style:normal;font-variant:normal;font-weight:normal;font-stretch:normal;text-align:start;line-height:150%;letter-spacing:11.63295174px;writing-mode:lr-tb;text-anchor:start;fill:#800000;font-family:SWRomnd;-inkscape-font-specification:SWRomnd"
           id="path9726"
           inkscape:connector-curvature="0" />
        <path
           d="m 471.35174,51.636654 c 0,0 10.28293,31.967367 10.28293,31.967367 0,0 0.12679,-0.165575 0.12679,-0.165575 0,0 10.36169,-31.030417 10.36169,-31.030417 0.19649,-0.2536 0.43483,-0.371245 0.71502,-0.352935 0.14045,0.0092 0.23871,0.0344 0.29477,0.07547 0.28094,0.132973 0.46365,0.373456 0.54813,0.721447 0,0 0.0414,1.373811 0.0414,1.373811 0,0 -0.0414,39.052053 -0.0414,39.052053 -0.0569,0.377318 -0.22537,0.652064 -0.50549,0.824241 0,0 -2.0208,-0.132351 -2.0208,-0.132351 -0.22496,-0.09072 -0.39346,-0.311003 -0.5055,-0.660838 0,0 -0.0841,-0.577072 -0.0841,-0.577072 0,0 0,-24.380733 0,-24.380733 0,0 -0.0426,-0.0028 -0.0426,-0.0028 0,0 -8.0869,24.60195 -8.0869,24.60195 -0.22517,0.331444 -0.47837,0.490262 -0.75958,0.476457 -0.42106,-0.02067 -0.7157,-0.301648 -0.88394,-0.842927 0,0 -7.96518,-25.171548 -7.96518,-25.171548 0,0 -0.0427,-0.0021 -0.0427,-0.0021 0,0 0,24.7805 0,24.7805 -0.11218,0.33699 -0.27373,0.547938 -0.48464,0.632846 -0.21094,0.08491 -0.55496,0.115644 -1.03208,0.09222 0,0 -1.0534,-0.05172 -1.0534,-0.05172 -0.22516,-0.125591 -0.40805,-0.381804 -0.54866,-0.768649 0,0 -0.0415,-0.973366 -0.0415,-0.973366 0,0 0,-39.456185 0,-39.456185 0.11217,-0.412941 0.29464,-0.670492 0.54744,-0.772656 0.11216,-0.07044 0.23856,-0.102232 0.37917,-0.09536 0.14062,0.0069 0.26721,0.07042 0.37979,0.190446 0.11257,0.120099 0.25298,0.336237 0.42125,0.648411 0,0 2e-5,0 2e-5,0"
           style="font-size:46.53180695px;font-style:normal;font-variant:normal;font-weight:normal;font-stretch:normal;text-align:start;line-height:150%;letter-spacing:11.63295174px;writing-mode:lr-tb;text-anchor:start;fill:#800000;font-family:SWRomnd;-inkscape-font-specification:SWRomnd"
           id="path9728"
           inkscape:connector-curvature="0" />
        <path
           d="m 523.13281,55.150543 c 0,0 11.11872,41.150411 11.11872,41.150411 -2e-5,0.495575 -0.0769,0.839808 -0.23063,1.032711 -0.15378,0.192893 -0.45441,0.265552 -0.90188,0.217979 0,0 -1.38498,-0.14725 -1.38498,-0.14725 -0.22338,-0.138287 -0.40504,-0.366842 -0.54502,-0.685676 0,0 -2.47501,-9.056328 -2.47501,-9.056328 0,0 -12.84823,-1.265583 -12.84823,-1.265583 0,0 -2.56529,8.746695 -2.56529,8.746695 -0.22381,0.323596 -0.55993,0.466459 -1.00835,0.428591 -0.11272,-0.0095 -0.30896,-0.04481 -0.58872,-0.105882 -0.30895,-0.02609 -0.57533,-0.04859 -0.79914,-0.06749 -0.42086,-0.111528 -0.63129,-0.509795 -0.63128,-1.194791 -1e-5,-0.190523 0.0142,-0.341849 0.0426,-0.453988 0,0 11.22347,-38.940648 11.22347,-38.940648 0.19582,-0.360184 0.41957,-0.526917 0.67125,-0.500198 0.41916,0.04461 0.72667,0.325086 0.92252,0.841446 0,0 0,-1e-6 0,-1e-6 m -6.00567,27.06935 c 0,0 10.32813,1.025231 10.32813,1.025231 0,0 -5.16123,-18.648858 -5.16123,-18.648858 0,0 -5.1669,17.623627 -5.1669,17.623627"
           style="font-size:46.53180695px;font-style:normal;font-variant:normal;font-weight:normal;font-stretch:normal;text-align:start;line-height:150%;letter-spacing:11.63295174px;writing-mode:lr-tb;text-anchor:start;fill:#800000;font-family:SWRomnd;-inkscape-font-specification:SWRomnd"
           id="path9730"
           inkscape:connector-curvature="0" />
        <path
           d="m 567.06787,60.416155 c 0.24884,0.04615 0.41467,0.238765 0.49751,0.57785 0.0828,0.33915 0.1242,0.832496 0.12422,1.480015 0,0 0,1.369445 0,1.369445 -0.0824,0.327265 -0.23447,0.565599 -0.45609,0.715019 0,0 -0.4153,0.03703 -0.4153,0.03703 0,0 -7.36368,-1.244733 -7.36368,-1.244733 0,0 -0.0409,36.994529 -0.0409,36.994529 -0.16693,0.50378 -0.51463,0.71776 -1.04233,0.63708 -0.11184,-0.0171 -0.32059,-0.0677 -0.62626,-0.15192 -0.30571,-0.0467 -0.58364,-0.0892 -0.83382,-0.12748 -0.3057,-0.19872 -0.4863,-0.47357 -0.54179,-0.824553 0,0 -0.0845,-0.584479 -0.0845,-0.584479 0,0 0,-36.429862 0,-36.429862 0,0 -7.64176,-1.155258 -7.64176,-1.155258 -0.3066,-0.193368 -0.48794,-0.427013 -0.54401,-0.700935 -0.0561,-0.273848 -0.0841,-0.734018 -0.0841,-1.380509 0,0 0,-1.371095 0,-1.371095 0.0839,-0.483394 0.32111,-0.737431 0.71162,-0.762098 0,0 18.34122,2.921956 18.34122,2.921956"
           style="font-size:46.53180695px;font-style:normal;font-variant:normal;font-weight:normal;font-stretch:normal;text-align:start;line-height:150%;letter-spacing:11.63295174px;writing-mode:lr-tb;text-anchor:start;fill:#800000;font-family:SWRomnd;-inkscape-font-specification:SWRomnd"
           id="path9732"
           inkscape:connector-curvature="0" />
        <path
           d="m 586.49426,64.305936 c 0.22002,0.125054 0.38484,0.371017 0.49446,0.737898 0,0 0.0822,0.589887 0.0822,0.589887 0,0 0,39.968279 0,39.968279 -0.027,0.29904 -0.17792,0.53192 -0.45275,0.69866 -0.22003,-0.0105 -0.56317,-0.0677 -1.02943,-0.17155 0,0 -1.02943,-0.22937 -1.02943,-0.22937 -0.22002,-0.16356 -0.39875,-0.45061 -0.53616,-0.86117 0,0 -0.0405,-0.98036 -0.0405,-0.98036 0,0 0,-39.456182 0,-39.456182 0.13741,-0.578353 0.48055,-0.806403 1.02942,-0.684151 0.10962,0.02446 0.32924,0.09267 0.65889,0.204619 0.30183,0.06729 0.57627,0.128437 0.8233,0.183438 0,0 0,2e-6 0,2e-6"
           style="font-size:46.53180695px;font-style:normal;font-variant:normal;font-weight:normal;font-stretch:normal;text-align:start;line-height:150%;letter-spacing:11.63295174px;writing-mode:lr-tb;text-anchor:start;fill:#800000;font-family:SWRomnd;-inkscape-font-specification:SWRomnd"
           id="path9734"
           inkscape:connector-curvature="0" />
        <path
           d="m 621.80799,77.009056 c 0,0 2.75536,5.114735 2.75536,5.114735 0,0 1.36603,4.731136 1.36603,4.731136 -3e-5,0.455949 -0.052,0.757808 -0.1558,0.905619 -0.23409,0.246274 -0.55923,0.283834 -0.97541,0.112681 -0.0783,-0.03217 -0.25403,-0.123428 -0.52722,-0.273771 -0.27323,-0.150317 -0.51589,-0.282159 -0.7264,-0.399586 -0.21054,-0.117393 -0.36834,-0.367162 -0.47339,-0.74932 0,0 -1.18436,-4.044664 -1.18436,-4.044664 0,0 -1.26317,-2.189548 -1.26317,-2.189548 0,0 -2.24994,-2.446157 -2.24994,-2.446157 0,0 -4.86372,-1.685588 -4.86372,-1.685588 0,0 -2.24354,0.913362 -2.24354,0.913362 0,0 -2.53408,4.620747 -2.53408,4.620747 0,0 -1.20538,4.984584 -1.20538,4.984584 0,0 0,8.964987 0,8.964987 0,0 1.28682,5.775457 1.28682,5.775457 0,0 2.45264,5.91746 2.45264,5.91746 0,0 2.32313,2.36681 2.32313,2.36681 0,0 4.82296,1.6727 4.82296,1.6727 0,0 2.36872,-0.81784 2.36872,-0.81784 0,0 1.10556,-1.296 1.10556,-1.296 0,0 1.30313,-3.22029 1.30313,-3.22029 0.23678,-0.21572 0.56771,-0.24925 0.98394,-0.0781 0.10383,0.0427 0.28597,0.13687 0.5464,0.28249 0.23405,0.0962 0.45495,0.18707 0.6627,0.27248 0.39059,0.38858 0.5859,0.84938 0.58592,1.3824 -2e-5,0.19052 -0.052,0.41639 -0.1558,0.67765 0,0 -1.28812,3.24004 -1.28812,3.24004 0,0 -2.95339,3.03349 -2.95339,3.03349 0,0 -2.76389,0.9562 -2.76389,0.9562 0,0 -5.73606,-2.05881 -5.73606,-2.05881 0,0 -2.97102,-3.07295 -2.97102,-3.07295 0,0 -2.85521,-5.01606 -2.85521,-5.01606 0,0 -1.45344,-4.72704 -1.45344,-4.72704 0,0 -1.29634,-5.972123 -1.29634,-5.972123 0,0 0,-9.936318 0,-9.936318 0,0 1.45809,-5.570721 1.45809,-5.570721 0,0 1.37197,-3.403818 1.37197,-3.403818 0,0 2.97622,-3.165511 2.97622,-3.165511 0,0 2.76973,-1.102565 2.76973,-1.102565 0,0 0.1984,0.01084 0.1984,0.01084 0,0 5.61646,2.019881 5.61646,2.019881 0,0 2.9215,3.271049 2.9215,3.271049"
           style="font-size:46.53180695px;font-style:normal;font-variant:normal;font-weight:normal;font-stretch:normal;text-align:start;line-height:150%;letter-spacing:11.63295174px;writing-mode:lr-tb;text-anchor:start;fill:#800000;font-family:SWRomnd;-inkscape-font-specification:SWRomnd"
           id="path9736"
           inkscape:connector-curvature="0" />
      </g>
      <g
         style="font-size:46.53180695px;font-style:normal;font-variant:normal;font-weight:normal;font-stretch:normal;text-align:start;line-height:150%;letter-spacing:11.63295174px;word-spacing:0px;writing-mode:lr-tb;text-anchor:start;fill:#ff6600;fill-opacity:1;stroke:none;font-family:SWRomnd;-inkscape-font-specification:SWRomnd"
         id="text9612-4">
        <path
           d="m 174.45735,68.610271 c 1.0156,1.072935 2.02863,2.204849 3.02556,3.352735 0,0 1.45443,3.789166 1.45443,3.789166 0,0 1.29309,5.264844 1.29309,5.264844 0,0 0,9.934666 0,9.934666 0,0 -1.45443,6.431282 -1.45443,6.431282 0,0 -1.37377,4.238096 -1.37377,4.238096 0,0 -2.94488,5.01648 -2.94488,5.01648 0,0 -4.32799,3.42448 -4.32799,3.42448 0,0 -9.50286,3.49098 -9.50286,3.49098 -0.2096,-0.0316 -0.37986,-0.21145 -0.51076,-0.5396 0,0 -0.0386,-0.95605 -0.0386,-0.95605 0,0 0,-39.456184 0,-39.456184 0.10442,-0.421223 0.24818,-0.744627 0.4313,-0.970209 0,0 0.23495,-0.149141 0.23495,-0.149141 0,0 9.74653,-3.449511 9.74653,-3.449511 0,0 3.96743,0.577966 3.96743,0.577966 m -0.88114,4.344066 c 0,0 -3.56626,-0.596123 -3.56626,-0.596123 0,0 -6.99084,2.504819 -6.99084,2.504819 0,0 0,33.459707 0,33.459707 0,0 6.74968,-2.42539 6.74968,-2.42539 0,0 3.80742,-2.96556 3.80742,-2.96556 0,0 1.0817,-1.8414 1.0817,-1.8414 0.48074,-1.300376 1.32923,-4.525197 2.54206,-9.685243 0,0 0.0398,-8.976921 0.0398,-8.976921 -0.34999,-1.418021 -0.71361,-2.850699 -1.09084,-4.298044 -0.43104,-1.621657 -0.90318,-2.947218 -1.41097,-3.959457 0,0 -1.16172,-1.216388 -1.16172,-1.216388"
           style="font-size:46.53180695px;font-style:normal;font-variant:normal;font-weight:normal;font-stretch:normal;text-align:start;line-height:150%;letter-spacing:11.63295174px;writing-mode:lr-tb;text-anchor:start;fill:#ff6600;font-family:SWRomnd;-inkscape-font-specification:SWRomnd"
           id="path9739"
           inkscape:connector-curvature="0" />
        <path
           d="m 213.94922,59.113953 c 0.44258,0.374599 1.0368,1.042897 1.78589,2.0234 0,0 1.45719,3.7547 1.45719,3.7547 0,0 0,6.338429 0,6.338429 0,0 -1.54028,4.480682 -1.54028,4.480682 0,0 -1.53712,2.385965 -1.53712,2.385965 0,0 -0.33256,0.289107 -0.33256,0.289107 0,0 -4.14915,2.647676 -4.14915,2.647676 0,0 7.55911,16.1202 7.55911,16.1202 -2e-5,0.342503 -0.0558,0.71296 -0.1674,1.111382 -0.16621,0.25659 -0.4159,0.41247 -0.74906,0.467641 0,0 -0.33238,0.05504 -0.33238,0.05504 -0.11163,0.01848 -0.26457,0.04381 -0.45884,0.07598 -0.19431,0.06962 -0.33286,0.110969 -0.41528,0.126121 -0.44262,0.08138 -0.73316,-0.09317 -0.87161,-0.523647 0,0 -8.00211,-16.76414 -8.00211,-16.76414 0,0 -5.45629,1.119236 -5.45629,1.119236 0,0 0,17.986145 0,17.986145 -0.0548,0.39226 -0.19889,0.67192 -0.43231,0.83896 -0.23342,0.16704 -0.58315,0.30297 -1.0492,0.40781 0,0 -1.02895,0.23146 -1.02895,0.23146 -0.21993,-0.0651 -0.39857,-0.27212 -0.53592,-0.62116 0,0 -0.0405,-0.96222 -0.0405,-0.96222 0,0 0,-39.456188 0,-39.456188 0.10956,-0.404547 0.26041,-0.704991 0.45254,-0.90133 0,0 0.24653,-0.111618 0.24653,-0.111618 0,0 11.44733,-2.241423 11.44733,-2.241423 0,0 4.15037,1.12179 4.15037,1.12179 m -1.03849,4.130767 c 0,0 -3.52726,-1.008384 -3.52726,-1.008384 0,0 -8.64414,1.741905 -8.64414,1.741905 0,0 0,14.56005 0,14.56005 0,0 8.43764,-1.703939 8.43764,-1.703939 0,0 3.77578,-2.407231 3.77578,-2.407231 0,0 1.12013,-3.174444 1.12013,-3.174444 0,0 0,-5.139133 0,-5.139133 0,0 -1.16215,-2.868824 -1.16215,-2.868824"
           style="font-size:46.53180695px;font-style:normal;font-variant:normal;font-weight:normal;font-stretch:normal;text-align:start;line-height:150%;letter-spacing:11.63295174px;writing-mode:lr-tb;text-anchor:start;fill:#ff6600;font-family:SWRomnd;-inkscape-font-specification:SWRomnd"
           id="path9741"
           inkscape:connector-curvature="0" />
        <path
           d="m 237.5976,53.558615 c 0.22384,0.04947 0.39153,0.238804 0.50306,0.568025 0,0 0.0837,0.561637 0.0837,0.561637 0,0 0,39.96828 0,39.96828 -0.0275,0.308317 -0.18103,0.593051 -0.46063,0.854203 -0.22386,0.06511 -0.57253,0.129328 -1.04604,0.192355 0,0 -1.04545,0.139155 -1.04545,0.139155 -0.22346,-0.08479 -0.40497,-0.307869 -0.54452,-0.669236 0,0 -0.0412,-0.965852 -0.0412,-0.965852 0,0 0,-39.456185 0,-39.456185 0.13955,-0.627544 0.48803,-0.978433 1.04545,-1.052669 0.11132,-0.01478 0.33437,-0.02519 0.66914,-0.03125 0.30654,-0.04076 0.58515,-0.07859 0.83649,-0.108464 0,0 0,1e-6 0,1e-6"
           style="font-size:46.53180695px;font-style:normal;font-variant:normal;font-weight:normal;font-stretch:normal;text-align:start;line-height:150%;letter-spacing:11.63295174px;writing-mode:lr-tb;text-anchor:start;fill:#ff6600;font-family:SWRomnd;-inkscape-font-specification:SWRomnd"
           id="path9743"
           inkscape:connector-curvature="0" />
        <path
           d="m 258.99969,51.574478 c 0,0 16.57172,29.801982 16.57172,29.801982 0,0 0.0414,-30.608349 0.0414,-30.608349 0.0843,-0.387458 0.26693,-0.649222 0.54771,-0.785287 0.19633,-0.05243 0.49088,-0.0937 0.88362,-0.123798 0,0 1.09343,-0.07689 1.09343,-0.07689 0.28108,0.09733 0.46389,0.334069 0.5484,0.710218 0,0 0.0415,1.139098 0.0415,1.139098 0,0 0,39.342203 0,39.342203 -0.11215,0.539461 -0.37863,0.821274 -0.79946,0.845444 -0.28113,0.01614 -0.50573,-0.05935 -0.67447,-0.236954 0,0 -16.61636,-29.893446 -16.61636,-29.893446 0,0 0,30.60518 0,30.60518 -0.0275,0.307786 -0.1814,0.589556 -0.46158,0.84531 -0.22433,0.06079 -0.57417,0.114759 -1.04952,0.161902 0,0 -1.04951,0.104085 -1.04951,0.104085 -0.22433,-0.09229 -0.40654,-0.321454 -0.54663,-0.687501 0,0 -0.0413,-0.967233 -0.0413,-0.967233 0,0 0,-39.456185 0,-39.456185 0.0834,-0.465264 0.34942,-0.796151 0.79807,-0.992663 0.25184,-0.02493 0.48952,0.06603 0.71303,0.272884 0,0 0,10e-7 0,10e-7"
           style="font-size:46.53180695px;font-style:normal;font-variant:normal;font-weight:normal;font-stretch:normal;text-align:start;line-height:150%;letter-spacing:11.63295174px;writing-mode:lr-tb;text-anchor:start;fill:#ff6600;font-family:SWRomnd;-inkscape-font-specification:SWRomnd"
           id="path9745"
           inkscape:connector-curvature="0" />
        <path
           d="m 319.42799,48.913595 c -3e-5,0.381084 -0.0846,0.707248 -0.2538,0.978494 0,0 -12.05907,16.690628 -12.05907,16.690628 0,0 12.22868,21.731622 12.22868,21.731622 0.0561,0.150393 0.0842,0.282854 0.0842,0.397388 -3e-5,0.190523 -0.0704,0.440021 -0.21109,0.748497 -0.14076,0.308477 -0.40799,0.468272 -0.80169,0.479385 0,0 -1.22265,0.03451 -1.22265,0.03451 -0.47834,0.0135 -0.78786,-0.206279 -0.92858,-0.659339 0,0 -11.21495,-19.849742 -11.21495,-19.849742 0,0 -3.79431,5.354182 -3.79431,5.354182 0,0 0,14.901999 0,14.901999 -0.0277,0.3062 -0.18214,0.579113 -0.46347,0.818737 -0.22523,0.04787 -0.57649,0.0817 -1.05377,0.101482 0,0 -1.05377,0.04367 -1.05377,0.04367 -0.22524,-0.105204 -0.40819,-0.344857 -0.54885,-0.71897 0,0 -0.0415,-0.969611 -0.0415,-0.969611 0,0 0,-39.456185 0,-39.456185 0.1122,-0.384551 0.26669,-0.657464 0.46346,-0.818737 0.19677,-0.04555 0.51998,-0.07768 0.96962,-0.09634 0,0 1.13793,-0.04715 1.13793,-0.04715 0.22522,0.0667 0.39394,0.268948 0.50615,0.606756 0,0 0.0842,0.568079 0.0842,0.568079 0,0 0,19.699183 0,19.699183 0,0 15.72675,-21.554787 15.72675,-21.554787 0.0846,0.0362 0.22531,0.0515 0.42219,0.0459 0.11224,-0.0031 0.2668,-0.0075 0.46368,-0.01309 0.22449,-0.04484 0.39329,-0.06888 0.50639,-0.07211 0.64669,-0.01821 0.9981,0.33364 1.05426,1.055557 0,0 -10e-6,0 -10e-6,0"
           style="font-size:46.53180695px;font-style:normal;font-variant:normal;font-weight:normal;font-stretch:normal;text-align:start;line-height:150%;letter-spacing:11.63295174px;writing-mode:lr-tb;text-anchor:start;fill:#ff6600;font-family:SWRomnd;-inkscape-font-specification:SWRomnd"
           id="path9747"
           inkscape:connector-curvature="0" />
        <path
           d="m 362.21892,67.92909 c 0.25306,0.07455 0.45,0.26339 0.59081,0.566514 0.0561,0.608705 0.0842,1.084296 0.0842,1.426777 -3e-5,0.153096 -0.0143,0.400967 -0.0427,0.743611 -4e-5,0.303971 -4e-5,0.531936 0,0.683897 -0.0277,0.266685 -0.18232,0.515364 -0.46386,0.746034 0,0 -0.37963,0.116164 -0.37963,0.116164 0,0 -24.00654,0.228267 -24.00654,0.228267 -0.42149,-0.106044 -0.63223,-0.596826 -0.63222,-1.472362 0,0 0,-1.542897 0,-1.542897 -1e-5,-0.455911 0.14035,-0.819587 0.42107,-1.091031 0.16924,-0.117476 0.31,-0.177204 0.4223,-0.179191 0,0 24.00655,-0.225783 24.00655,-0.225783"
           style="font-size:46.53180695px;font-style:normal;font-variant:normal;font-weight:normal;font-stretch:normal;text-align:start;line-height:150%;letter-spacing:11.63295174px;writing-mode:lr-tb;text-anchor:start;fill:#ff6600;font-family:SWRomnd;-inkscape-font-specification:SWRomnd"
           id="path9749"
           inkscape:connector-curvature="0" />
        <path
           d="m 399.16517,49.182744 c 0,0 2.95285,4.065112 2.95285,4.065112 0,0 1.51976,4.289249 1.51976,4.289249 0,0 1.35009,5.600227 1.35009,5.600227 0,0 0,9.936318 0,9.936318 0,0 -1.56127,6.045024 -1.56127,6.045024 0,0 -1.35008,3.764525 -1.35008,3.764525 0,0 -3.16403,4.155702 -3.16403,4.155702 0,0 -2.95407,1.98753 -2.95407,1.98753 0,0 -6.07537,-0.0739 -6.07537,-0.0739 0,0 -3.12249,-2.094844 -3.12249,-2.094844 0,0 -2.99553,-4.09275 -2.99553,-4.09275 0,0 -1.51974,-4.274692 -1.51974,-4.274692 0,0 -1.35007,-5.587296 -1.35007,-5.587296 0,0 0.0427,-9.936563 0.0427,-9.936563 0,0 1.51852,-6.003567 1.51852,-6.003567 0,0 1.39278,-3.833867 1.39278,-3.833867 0,0 3.12249,-4.127951 3.12249,-4.127951 0,0 2.91131,-1.959413 2.91131,-1.959413 0,0 0.20995,-0.05737 0.20995,-0.05737 0,0 5.94964,0.07378 5.94964,0.07378 0,0 3.12253,2.12475 3.12253,2.12475 m -1.22313,3.821177 c 0,0 -3.62911,-1.726923 -3.62911,-1.726923 0,0 -2.65867,-0.01017 -2.65867,-0.01017 0,0 -3.71208,1.782404 -3.71208,1.782404 0,0 -2.44746,4.981415 -2.44746,4.981415 0,0 -1.39278,5.375112 -1.39278,5.375112 0,0 -0.0415,8.965226 -0.0415,8.965226 0,0 1.26462,5.302005 1.26462,5.302005 0,0 2.65862,5.353453 2.65862,5.353453 0,0 3.62908,1.643764 3.62908,1.643764 0,0 2.44749,0.0094 2.44749,0.0094 0,0 3.88179,-1.640381 3.88179,-1.640381 0,0 2.5305,-5.129455 2.5305,-5.129455 0,0 1.3513,-5.191783 1.3513,-5.191783 0,0 0,-9.07897 0,-9.07897 0,0 -1.26586,-5.428105 -1.26586,-5.428105 0,0 -2.61592,-5.206954 -2.61592,-5.206954"
           style="font-size:46.53180695px;font-style:normal;font-variant:normal;font-weight:normal;font-stretch:normal;text-align:start;line-height:150%;letter-spacing:11.63295174px;writing-mode:lr-tb;text-anchor:start;fill:#ff6600;font-family:SWRomnd;-inkscape-font-specification:SWRomnd"
           id="path9751"
           inkscape:connector-curvature="0" />
        <path
           d="m 447.83687,68.481652 c 0.25299,0.08179 0.44988,0.276251 0.59066,0.583399 0.0561,0.610309 0.0841,1.086702 0.0842,1.429185 -3e-5,0.153095 -0.0143,0.400558 -0.0427,0.74239 -3e-5,0.303969 -3e-5,0.531934 0,0.683896 -0.0277,0.265895 -0.18228,0.510153 -0.46375,0.732777 0,0 -0.37953,0.105314 -0.37953,0.105314 0,0 -24.00371,-0.532761 -24.00371,-0.532761 -0.42152,-0.118696 -0.63228,-0.615804 -0.63228,-1.491339 0,0 0,-1.542897 0,-1.542897 0,-0.455912 0.14037,-0.815375 0.42112,-1.078392 0.16924,-0.112397 0.31002,-0.1679 0.42232,-0.166515 0,0 24.00366,0.534943 24.00366,0.534943"
           style="font-size:46.53180695px;font-style:normal;font-variant:normal;font-weight:normal;font-stretch:normal;text-align:start;line-height:150%;letter-spacing:11.63295174px;writing-mode:lr-tb;text-anchor:start;fill:#ff6600;font-family:SWRomnd;-inkscape-font-specification:SWRomnd"
           id="path9753"
           inkscape:connector-curvature="0" />
        <path
           d="m 469.62275,49.192182 c 0,0 10.28293,31.967366 10.28293,31.967366 0,0 0.1268,-0.165574 0.1268,-0.165574 0,0 10.36331,-31.058666 10.36331,-31.058666 0.19649,-0.2536 0.43483,-0.371246 0.71501,-0.352936 0.14046,0.0092 0.23872,0.0344 0.29478,0.07547 0.28094,0.132973 0.46365,0.373458 0.54813,0.721449 0,0 0.0414,1.37381 0.0414,1.37381 0,0 -0.0414,39.052053 -0.0414,39.052053 -0.0569,0.377319 -0.22537,0.652065 -0.5055,0.824241 0,0 -2.02079,-0.132351 -2.02079,-0.132351 -0.22496,-0.09072 -0.39346,-0.311002 -0.50551,-0.660838 0,0 -0.0841,-0.577072 -0.0841,-0.577072 0,0 0,-24.380733 0,-24.380733 0,0 -0.0426,-0.0028 -0.0426,-0.0028 0,0 -8.08853,24.630199 -8.08853,24.630199 -0.22517,0.331442 -0.47836,0.490262 -0.75958,0.476456 -0.42105,-0.02067 -0.7157,-0.301648 -0.88393,-0.842926 0,0 -7.96518,-25.171549 -7.96518,-25.171549 0,0 -0.0427,-0.0021 -0.0427,-0.0021 0,0 0,24.780499 0,24.780499 -0.11219,0.33699 -0.27373,0.547939 -0.48465,0.632846 -0.21093,0.08491 -0.55495,0.115644 -1.03207,0.09222 0,0 -1.05341,-0.05172 -1.05341,-0.05172 -0.22515,-0.125592 -0.40826,-0.376481 -0.54896,-0.761341 0,0 -0.0415,-0.972781 -0.0415,-0.972781 0,0 0,-39.456185 0,-39.456185 0.11223,-0.414524 0.29482,-0.674652 0.54776,-0.780384 0.11222,-0.07203 0.23856,-0.102398 0.37918,-0.09553 0.14061,0.0069 0.26721,0.07042 0.37979,0.190446 0.11257,0.120099 0.25298,0.336237 0.42124,0.64841 0,0 3e-5,1e-6 3e-5,1e-6"
           style="font-size:46.53180695px;font-style:normal;font-variant:normal;font-weight:normal;font-stretch:normal;text-align:start;line-height:150%;letter-spacing:11.63295174px;writing-mode:lr-tb;text-anchor:start;fill:#ff6600;font-family:SWRomnd;-inkscape-font-specification:SWRomnd"
           id="path9755"
           inkscape:connector-curvature="0" />
        <path
           d="m 521.41146,52.607942 c 0,0 11.11872,41.150412 11.11872,41.150412 -2e-5,0.495575 -0.0769,0.839808 -0.23062,1.032712 -0.15379,0.192892 -0.45441,0.265552 -0.90188,0.217978 0,0 -1.38499,-0.147251 -1.38499,-0.147251 -0.22337,-0.138286 -0.40504,-0.36684 -0.54501,-0.685674 0,0 -2.47501,-9.056328 -2.47501,-9.056328 0,0 -12.8518,-1.228242 -12.8518,-1.228242 0,0 -2.56529,8.746694 -2.56529,8.746694 -0.22382,0.323596 -0.55993,0.46646 -1.00836,0.428591 -0.11272,-0.0095 -0.30896,-0.04482 -0.58871,-0.105881 -0.30896,-0.02609 -0.57534,-0.04859 -0.79915,-0.06749 -0.42085,-0.111528 -0.63128,-0.509794 -0.63128,-1.194791 0,-0.190522 0.0142,-0.341849 0.0426,-0.453988 0,0 11.22571,-38.964095 11.22571,-38.964095 0.19623,-0.364431 0.4209,-0.540811 0.67259,-0.514093 0.41916,0.04461 0.72666,0.325087 0.92251,0.841445 0,0 0,0 0,0 m -6.00923,27.106693 c 0,0 10.33169,0.98789 10.33169,0.98789 0,0 -5.16122,-18.648858 -5.16122,-18.648858 0,0 -5.17047,17.660968 -5.17047,17.660968"
           style="font-size:46.53180695px;font-style:normal;font-variant:normal;font-weight:normal;font-stretch:normal;text-align:start;line-height:150%;letter-spacing:11.63295174px;writing-mode:lr-tb;text-anchor:start;fill:#ff6600;font-family:SWRomnd;-inkscape-font-specification:SWRomnd"
           id="path9757"
           inkscape:connector-curvature="0" />
        <path
           d="m 565.36226,57.761068 c 0.24955,0.04209 0.41587,0.232006 0.49894,0.56974 0.0831,0.337815 0.12456,0.830472 0.12459,1.477991 0,0 0,1.369443 0,1.369443 -0.0826,0.328611 -0.23515,0.569422 -0.45742,0.722454 0,0 -0.41648,0.0438 -0.41648,0.0438 0,0 -7.36822,-1.216954 -7.36822,-1.216954 0,0 -0.041,36.995152 -0.041,36.995152 -0.16734,0.506332 -0.51486,0.719158 -1.04257,0.638475 -0.11183,-0.0171 -0.32059,-0.06774 -0.62626,-0.151916 -0.3057,-0.04674 -0.58364,-0.08924 -0.83381,-0.127484 -0.3057,-0.198718 -0.4863,-0.473569 -0.54179,-0.824551 0,0 -0.0845,-0.58448 -0.0845,-0.58448 0,0 0,-36.429861 0,-36.429861 0,0 -7.64683,-1.119365 -7.64683,-1.119365 -0.3066,-0.193368 -0.48793,-0.427013 -0.544,-0.700935 -0.0561,-0.273849 -0.0841,-0.734018 -0.0841,-1.380509 0,0 0,-1.371096 0,-1.371096 0.0839,-0.483404 0.32111,-0.737431 0.71162,-0.762097 0,0 18.35186,2.852194 18.35186,2.852194"
           style="font-size:46.53180695px;font-style:normal;font-variant:normal;font-weight:normal;font-stretch:normal;text-align:start;line-height:150%;letter-spacing:11.63295174px;writing-mode:lr-tb;text-anchor:start;fill:#ff6600;font-family:SWRomnd;-inkscape-font-specification:SWRomnd"
           id="path9759"
           inkscape:connector-curvature="0" />
        <path
           d="m 584.80463,61.569887 c 0.22002,0.125055 0.38484,0.371018 0.49446,0.7379 0,0 0.0822,0.589887 0.0822,0.589887 0,0 0,39.968276 0,39.968276 -0.027,0.29904 -0.17794,0.53192 -0.45275,0.69866 -0.22004,-0.0105 -0.56319,-0.0677 -1.02944,-0.17155 0,0 -1.02943,-0.22936 -1.02943,-0.22936 -0.22003,-0.16357 -0.39874,-0.45062 -0.53616,-0.86118 0,0 -0.0405,-0.98036 -0.0405,-0.98036 0,0 0,-39.456182 0,-39.456182 0.1374,-0.578353 0.48056,-0.806401 1.02943,-0.684148 0.1096,0.02446 0.32923,0.09267 0.65888,0.204618 0.30183,0.06729 0.57626,0.128436 0.8233,0.183437 0,0 0,2e-6 0,2e-6"
           style="font-size:46.53180695px;font-style:normal;font-variant:normal;font-weight:normal;font-stretch:normal;text-align:start;line-height:150%;letter-spacing:11.63295174px;writing-mode:lr-tb;text-anchor:start;fill:#ff6600;font-family:SWRomnd;-inkscape-font-specification:SWRomnd"
           id="path9761"
           inkscape:connector-curvature="0" />
        <path
           d="m 620.18837,74.038496 c 0,0 2.76275,5.096012 2.76275,5.096012 0,0 1.37729,4.702546 1.37729,4.702546 -2e-5,0.455952 -0.0519,0.757841 -0.15579,0.905622 -0.23409,0.246274 -0.56292,0.293178 -0.98395,0.134324 -0.0792,-0.02986 -0.25699,-0.115918 -0.53336,-0.258188 -0.27641,-0.142241 -0.51987,-0.272075 -0.73038,-0.3895 -0.21055,-0.117396 -0.36835,-0.367165 -0.47339,-0.74932 0,0 -1.18436,-4.044664 -1.18436,-4.044664 0,0 -1.26317,-2.189551 -1.26317,-2.189551 0,0 -2.26537,-2.403504 -2.26537,-2.403504 0,0 -4.86964,-1.667915 -4.86964,-1.667915 0,0 -2.25252,0.940411 -2.25252,0.940411 0,0 -2.53409,4.620745 -2.53409,4.620745 0,0 -1.20968,4.998712 -1.20968,4.998712 0,0 0,8.964987 0,8.964987 0,0 1.29112,5.76133 1.29112,5.76133 0,0 2.45265,5.917457 2.45265,5.917457 0,0 2.33279,2.3377 2.33279,2.3377 0,0 4.82859,1.65601 4.82859,1.65601 0,0 2.38376,-0.85941 2.38376,-0.85941 0,0 1.10556,-1.29599 1.10556,-1.29599 0,0 1.30313,-3.22029 1.30313,-3.22029 0.23677,-0.21573 0.5657,-0.24418 0.98678,-0.0854 0.10505,0.0397 0.28931,0.12843 0.55278,0.26634 0.23677,0.0893 0.46024,0.17363 0.67041,0.2529 0.39515,0.37704 0.58762,0.84502 0.58764,1.37804 -2e-5,0.19052 -0.052,0.41639 -0.15579,0.67765 0,0 -1.29985,3.26976 -1.29985,3.26976 0,0 -2.96032,3.05108 -2.96032,3.05108 0,0 -2.77497,0.98683 -2.77497,0.98683 0,0 -5.75013,-2.01773 -5.75013,-2.01773 0,0 -2.9762,-3.05728 -2.9762,-3.05728 0,0 -2.8616,-4.99509 -2.8616,-4.99509 0,0 -1.45925,-4.707882 -1.45925,-4.707882 0,0 -1.29635,-5.972128 -1.29635,-5.972128 0,0 0,-9.936318 0,-9.936318 0,0 1.45809,-5.570719 1.45809,-5.570719 0,0 1.3784,-3.424925 1.3784,-3.424925 0,0 2.98199,-3.184538 2.98199,-3.184538 0,0 2.77492,-1.118229 2.77492,-1.118229 0,0 0.20013,0.0057 0.20013,0.0057 0,0 5.6296,1.981765 5.6296,1.981765 0,0 2.93178,3.242609 2.93178,3.242609"
           style="font-size:46.53180695px;font-style:normal;font-variant:normal;font-weight:normal;font-stretch:normal;text-align:start;line-height:150%;letter-spacing:11.63295174px;writing-mode:lr-tb;text-anchor:start;fill:#ff6600;font-family:SWRomnd;-inkscape-font-specification:SWRomnd"
           id="path9763"
           inkscape:connector-curvature="0" />
      </g>
    </g>
  </g>
  <g
     style="display:inline"
     id="layer1"
     inkscape:groupmode="layer"
     inkscape:label="Layer 1">
    <g
       style="font-size:40px;font-style:normal;font-weight:normal;line-height:125%;letter-spacing:0px;word-spacing:0px;fill:#000000;fill-opacity:1;stroke:none;font-family:Sans"
       id="g4406" />
    <flowRoot
       style="font-size:40px;font-style:normal;font-weight:normal;line-height:125%;letter-spacing:0px;word-spacing:0px;fill:#000000;fill-opacity:1;stroke:none;font-family:Sans"
       id="flowRoot9604"
       xml:space="preserve"><flowRegion
         id="flowRegion9606"><rect
           y="56.647896"
           x="154.28572"
           height="85.714287"
           width="357.85715"
           id="rect9608" /></flowRegion><flowPara
         id="flowPara9610" /></flowRoot>    <text
       sodipodi:linespacing="125%"
       id="text9618"
       y="70.291977"
       x="276.13901"
       style="font-size:74.01779175px;font-style:normal;font-weight:normal;line-height:125%;letter-spacing:0px;word-spacing:0px;fill:#000000;fill-opacity:1;stroke:none;font-family:Sans"
       xml:space="preserve"
       inkscape:export-filename="C:\Users\Owner\Documents\Projects\Drinks-O-Matic\images\drinkomatic.png"
       inkscape:export-xdpi="90"
       inkscape:export-ydpi="90"
       transform="scale(1.2050612,0.82983335)"><tspan
         y="70.291977"
         x="276.13901"
         id="tspan9620"
         sodipodi:role="line"> </tspan></text>
  </g>
</svg>
